<svg width="33" height="34" viewBox="0 0 33 34" fill="none" xmlns="http://www.w3.org/2000/svg">
<path d="M28.4167 18.8375V4.97384L20.9917 0.792023H13.6125L24.75 7.06475V13.3829V20.9284L28.4167 18.8375Z" fill="url(#paint0_linear_37_22)"/>
<path d="M9.16675 26.7009L20.9917 33.5191H20.9459L21.1292 33.6554L28.7376 29.2918L32.4042 22.9736L21.2209 29.4282L9.16675 22.5191V26.7009Z" fill="url(#paint1_linear_37_22)"/>
<path d="M23.925 22.61H23.9708L17.3708 26.3372L20.9917 28.4281L33 21.4736V12.7009L29.3333 6.38269V19.3372L23.925 22.61Z" fill="url(#paint2_linear_37_22)"/>
<path d="M23.8334 7.56452L11.825 0.655426L4.21672 5.01906L0.550049 11.3827L11.9167 4.8827L17.4167 8.06452H17.325L23.8334 11.7918V7.56452Z" fill="url(#paint3_linear_37_22)"/>
<path d="M12.0083 5.92819L0 12.8827V21.61L3.66667 27.9282V14.9736L9.075 11.7918L15.675 8.0191L12.0083 5.92819Z" fill="url(#paint4_linear_37_22)"/>
<path d="M4.58337 15.4736V29.3372L12.0084 33.5191H19.4334L8.25004 27.2463V20.9281V13.3827L4.58337 15.4736Z" fill="url(#paint5_linear_37_22)"/>
<defs>
<linearGradient id="paint0_linear_37_22" x1="13.6125" y1="0.792023" x2="28.4167" y2="0.792023" gradientUnits="userSpaceOnUse">
<stop stop-color="#00FF8F"/>
<stop offset="1" stop-color="#00A1FF"/>
</linearGradient>
<linearGradient id="paint1_linear_37_22" x1="9.16675" y1="22.5191" x2="32.4042" y2="22.5191" gradientUnits="userSpaceOnUse">
<stop stop-color="#00FF8F"/>
<stop offset="1" stop-color="#00A1FF"/>
</linearGradient>
<linearGradient id="paint2_linear_37_22" x1="17.3708" y1="6.38269" x2="33" y2="6.38269" gradientUnits="userSpaceOnUse">
<stop stop-color="#00FF8F"/>
<stop offset="1" stop-color="#00A1FF"/>
</linearGradient>
<linearGradient id="paint3_linear_37_22" x1="0.550049" y1="0.655426" x2="23.8334" y2="0.655426" gradientUnits="userSpaceOnUse">
<stop stop-color="#00FF8F"/>
<stop offset="1" stop-color="#00A1FF"/>
</linearGradient>
<linearGradient id="paint4_linear_37_22" x1="0" y1="5.92819" x2="15.675" y2="5.92819" gradientUnits="userSpaceOnUse">
<stop stop-color="#00FF8F"/>
<stop offset="1" stop-color="#00A1FF"/>
</linearGradient>
<linearGradient id="paint5_linear_37_22" x1="4.58337" y1="13.3827" x2="19.4334" y2="13.3827" gradientUnits="userSpaceOnUse">
<stop stop-color="#00FF8F"/>
<stop offset="1" stop-color="#00A1FF"/>
</linearGradient>
</defs>
</svg>
