<svg width="30" height="30" viewBox="0 0 30 30" fill="none" xmlns="http://www.w3.org/2000/svg">
<path d="M15.25 17.7955L12.7045 15.25L15.25 12.7045L17.7955 15.25L15.25 17.7955ZM12.5455 10.3182L9.36364 7.13636L15.25 1.25L21.1364 7.13636L17.9545 10.3182L15.25 7.61364L12.5455 10.3182ZM7.13636 21.1364L1.25 15.25L7.13636 9.36364L10.3182 12.5455L7.61364 15.25L10.3182 17.9545L7.13636 21.1364ZM23.3636 21.1364L20.1818 17.9545L22.8864 15.25L20.1818 12.5455L23.3636 9.36364L29.25 15.25L23.3636 21.1364ZM15.25 29.25L9.36364 23.3636L12.5455 20.1818L15.25 22.8864L17.9545 20.1818L21.1364 23.3636L15.25 29.25Z" fill="#66B2FF"/>
</svg>
