<svg width="30" height="30" viewBox="0 0 30 30" fill="none" xmlns="http://www.w3.org/2000/svg">
<path d="M14.3213 10.0875L4.36501 20.5369C4.1988 20.7112 4.10608 20.9429 4.10608 21.1838C4.10608 21.4246 4.1988 21.6563 4.36501 21.8306L4.37626 21.8419C4.45683 21.9267 4.55382 21.9942 4.66132 22.0404C4.76882 22.0865 4.88458 22.1103 5.00157 22.1103C5.11856 22.1103 5.23432 22.0865 5.34182 22.0404C5.44932 21.9942 5.54631 21.9267 5.62688 21.8419L15.0019 12.0019L24.3731 21.8419C24.4537 21.9267 24.5507 21.9942 24.6582 22.0404C24.7657 22.0865 24.8815 22.1103 24.9984 22.1103C25.1154 22.1103 25.2312 22.0865 25.3387 22.0404C25.4462 21.9942 25.5432 21.9267 25.6238 21.8419L25.635 21.8306C25.8012 21.6563 25.8939 21.4246 25.8939 21.1838C25.8939 20.9429 25.8012 20.7112 25.635 20.5369L15.6788 10.0875C15.5912 9.99561 15.4859 9.92245 15.3692 9.87246C15.2525 9.82247 15.1269 9.79669 15 9.79669C14.8731 9.79669 14.7475 9.82247 14.6308 9.87246C14.5141 9.92245 14.4088 9.99561 14.3213 10.0875Z" fill="#0075FF"/>
</svg>
