<svg width="30" height="30" viewBox="0 0 30 30" fill="none" xmlns="http://www.w3.org/2000/svg">
<path d="M9.9863 4.37436C9.82276 4.5418 9.7312 4.76656 9.7312 5.00061C9.7312 5.23466 9.82276 5.45943 9.9863 5.62686L19.1232 15L9.9863 24.3712C9.82276 24.5387 9.7312 24.7634 9.7312 24.9975C9.7312 25.2315 9.82276 25.4563 9.9863 25.6237C10.0658 25.7054 10.1608 25.7703 10.2658 25.8146C10.3708 25.8589 10.4836 25.8817 10.5976 25.8817C10.7115 25.8817 10.8243 25.8589 10.9293 25.8146C11.0343 25.7703 11.1293 25.7054 11.2088 25.6237L20.925 15.6544C21.0957 15.4793 21.1912 15.2445 21.1912 15C21.1912 14.7555 21.0957 14.5207 20.925 14.3456L11.2088 4.37624C11.1293 4.29459 11.0343 4.2297 10.9293 4.18539C10.8243 4.14108 10.7115 4.11826 10.5976 4.11826C10.4836 4.11826 10.3708 4.14108 10.2658 4.18539C10.1608 4.2297 10.0658 4.29459 9.9863 4.37624V4.37436Z" fill="white"/>
</svg>
