<svg width="30" height="30" viewBox="0 0 30 30" fill="none" xmlns="http://www.w3.org/2000/svg">
<path d="M10.2625 15L8.6 16.1125V13.8875L10.2625 15ZM14.3375 12.275V9.175L9.1375 12.65L11.45 14.2L14.3375 12.275ZM20.875 12.65L15.6625 9.175V12.275L18.55 14.2L20.875 12.65ZM9.1375 17.35L14.3375 20.825V17.725L11.45 15.8L9.1375 17.35ZM15.6625 17.725V20.825L20.875 17.35L18.55 15.8L15.6625 17.725ZM15 13.425L12.65 15L15 16.575L17.35 15L15 13.425ZM27.5 15C27.5 21.875 21.875 27.5 15 27.5C8.125 27.5 2.5 21.875 2.5 15C2.5 8.125 8.125 2.5 15 2.5C21.875 2.5 27.5 8.125 27.5 15ZM22.725 12.65V12.5625L22.7125 12.5L22.7 12.4375C22.6875 12.425 22.6875 12.4125 22.675 12.3875L22.6625 12.3625L22.6375 12.3125L22.625 12.2875L22.6 12.25L22.575 12.2125L22.5375 12.175L22.5 12.15V12.125L22.45 12.1L22.4375 12.0875L15.375 7.3875C15.266 7.31409 15.1376 7.27488 15.0063 7.27488C14.8749 7.27488 14.7465 7.31409 14.6375 7.3875L7.5625 12.0875V12.1L7.5 12.125V12.15L7.4625 12.175L7.425 12.2125L7.4125 12.25L7.375 12.2875L7.3625 12.3125L7.3375 12.3625L7.325 12.3875L7.3 12.4375V12.5H7.2875L7.275 12.5625V17.4375L7.2875 17.5H7.3V17.5625C7.3125 17.575 7.3125 17.5875 7.325 17.6125L7.3375 17.6375L7.3625 17.6875L7.375 17.7125L7.4 17.75L7.425 17.7875L7.4625 17.825L7.5 17.85V17.875L7.55 17.9L7.5625 17.9125L14.6375 22.625C14.7375 22.7 14.875 22.725 15 22.725C15.125 22.725 15.2625 22.6875 15.375 22.625L22.4375 17.9125L22.45 17.9L22.5 17.875V17.85L22.5375 17.825L22.575 17.7875L22.6 17.75L22.625 17.7125L22.6375 17.6875L22.6625 17.6375L22.675 17.6125L22.7 17.5625V17.5H22.7125L22.725 17.4375V12.65ZM21.4 16.1125V13.8875L19.7375 15L21.4 16.1125Z" fill="#66B2FF"/>
</svg>
