<svg width="30" height="30" viewBox="0 0 30 30" fill="none" xmlns="http://www.w3.org/2000/svg">
<g clip-path="url(#clip0_51_5)">
<path d="M13.5939 3.75V1.875C13.5939 1.50204 13.742 1.14435 14.0058 0.880631C14.2695 0.616908 14.6272 0.46875 15.0001 0.46875C15.3731 0.46875 15.7308 0.616908 15.9945 0.880631C16.2582 1.14435 16.4064 1.50204 16.4064 1.875V3.75C16.4064 4.12296 16.2582 4.48065 15.9945 4.74437C15.7308 5.00809 15.3731 5.15625 15.0001 5.15625C14.6272 5.15625 14.2695 5.00809 14.0058 4.74437C13.742 4.48065 13.5939 4.12296 13.5939 3.75ZM22.9689 15C22.9689 16.5761 22.5015 18.1167 21.6259 19.4272C20.7503 20.7377 19.5057 21.759 18.0496 22.3622C16.5935 22.9653 14.9913 23.1231 13.4455 22.8156C11.8997 22.5082 10.4798 21.7492 9.36537 20.6348C8.25092 19.5203 7.49197 18.1004 7.18449 16.5546C6.87701 15.0088 7.03482 13.4066 7.63796 11.9505C8.24109 10.4944 9.26247 9.24984 10.5729 8.37423C11.8834 7.49861 13.4241 7.03125 15.0001 7.03125C17.1129 7.03342 19.1385 7.87368 20.6325 9.36764C22.1264 10.8616 22.9667 12.8872 22.9689 15ZM20.1564 15C20.1564 13.9802 19.854 12.9833 19.2874 12.1353C18.7208 11.2874 17.9155 10.6265 16.9733 10.2362C16.0312 9.84598 14.9944 9.74387 13.9942 9.94283C12.994 10.1418 12.0752 10.6329 11.3541 11.354C10.633 12.0751 10.1419 12.9939 9.94295 13.9941C9.74399 14.9943 9.8461 16.031 10.2364 16.9732C10.6266 17.9154 11.2875 18.7207 12.1355 19.2873C12.9834 19.8538 13.9803 20.1562 15.0001 20.1562C16.3672 20.1547 17.6778 19.611 18.6444 18.6443C19.6111 17.6777 20.1548 16.367 20.1564 15ZM6.03645 8.02617C6.16726 8.15698 6.32255 8.26074 6.49346 8.33154C6.66437 8.40233 6.84755 8.43877 7.03254 8.43877C7.21754 8.43877 7.40072 8.40233 7.57163 8.33154C7.74254 8.26074 7.89783 8.15698 8.02864 8.02617C8.15945 7.89536 8.26321 7.74007 8.334 7.56916C8.4048 7.39825 8.44123 7.21507 8.44123 7.03008C8.44123 6.84509 8.4048 6.66191 8.334 6.491C8.26321 6.32009 8.15945 6.16479 8.02864 6.03398L6.62239 4.62773C6.35821 4.36355 5.9999 4.21514 5.62629 4.21514C5.25269 4.21514 4.89438 4.36355 4.6302 4.62773C4.36602 4.89192 4.2176 5.25022 4.2176 5.62383C4.2176 5.99744 4.36602 6.35574 4.6302 6.61992L6.03645 8.02617ZM6.03645 21.9715L4.6302 23.3777C4.49939 23.5085 4.39563 23.6638 4.32483 23.8347C4.25404 24.0057 4.2176 24.1888 4.2176 24.3738C4.2176 24.5588 4.25404 24.742 4.32483 24.9129C4.39563 25.0838 4.49939 25.2391 4.6302 25.3699C4.89438 25.6341 5.25269 25.7825 5.62629 25.7825C5.81129 25.7825 5.99447 25.7461 6.16538 25.6753C6.33629 25.6045 6.49158 25.5007 6.62239 25.3699L8.02864 23.9637C8.29282 23.6995 8.44123 23.3412 8.44123 22.9676C8.44123 22.594 8.29282 22.2357 8.02864 21.9715C7.76446 21.7073 7.40615 21.5589 7.03254 21.5589C6.65894 21.5589 6.30063 21.7073 6.03645 21.9715ZM22.9689 8.4375C23.1536 8.43765 23.3365 8.40139 23.5073 8.33082C23.678 8.26024 23.8331 8.15672 23.9638 8.02617L25.37 6.61992C25.5009 6.48911 25.6046 6.33382 25.6754 6.16291C25.7462 5.992 25.7826 5.80882 25.7826 5.62383C25.7826 5.43884 25.7462 5.25566 25.6754 5.08475C25.6046 4.91384 25.5009 4.75854 25.37 4.62773C25.2392 4.49693 25.0839 4.39316 24.913 4.32237C24.7421 4.25158 24.5589 4.21514 24.374 4.21514C24.189 4.21514 24.0058 4.25158 23.8349 4.32237C23.664 4.39316 23.5087 4.49693 23.3779 4.62773L21.9716 6.03398C21.7738 6.23067 21.6389 6.48176 21.5841 6.75531C21.5294 7.02886 21.5573 7.31252 21.6642 7.57019C21.7711 7.82787 21.9522 8.04792 22.1846 8.20236C22.4169 8.3568 22.6899 8.43865 22.9689 8.4375ZM23.9638 21.9738C23.6996 21.7096 23.3413 21.5612 22.9677 21.5612C22.5941 21.5612 22.2358 21.7096 21.9716 21.9738C21.7074 22.238 21.559 22.5963 21.559 22.9699C21.559 23.3435 21.7074 23.7018 21.9716 23.966L23.3779 25.3723C23.642 25.6364 24.0003 25.7849 24.374 25.7849C24.7476 25.7849 25.1059 25.6364 25.37 25.3723C25.6342 25.1081 25.7826 24.7498 25.7826 24.3762C25.7826 24.0026 25.6342 23.6443 25.37 23.3801L23.9638 21.9738ZM5.15637 15C5.15637 14.627 5.00821 14.2694 4.74449 14.0056C4.48077 13.7419 4.12308 13.5938 3.75012 13.5938H1.87512C1.50216 13.5938 1.14448 13.7419 0.880753 14.0056C0.61703 14.2694 0.468872 14.627 0.468872 15C0.468872 15.373 0.61703 15.7306 0.880753 15.9944C1.14448 16.2581 1.50216 16.4062 1.87512 16.4062H3.75012C4.12308 16.4062 4.48077 16.2581 4.74449 15.9944C5.00821 15.7306 5.15637 15.373 5.15637 15ZM15.0001 24.8438C14.6272 24.8437 14.2695 24.9919 14.0058 25.2556C13.742 25.5194 13.5939 25.877 13.5939 26.25V28.125C13.5939 28.498 13.742 28.8556 14.0058 29.1194C14.2695 29.3831 14.6272 29.5312 15.0001 29.5312C15.3731 29.5312 15.7308 29.3831 15.9945 29.1194C16.2582 28.8556 16.4064 28.498 16.4064 28.125V26.25C16.4064 25.877 16.2582 25.5194 15.9945 25.2556C15.7308 24.9919 15.3731 24.8438 15.0001 24.8438ZM28.1251 13.5938H26.2501C25.8772 13.5938 25.5195 13.7419 25.2558 14.0056C24.992 14.2694 24.8439 14.627 24.8439 15C24.8439 15.373 24.992 15.7306 25.2558 15.9944C25.5195 16.2581 25.8772 16.4062 26.2501 16.4062H28.1251C28.4981 16.4062 28.8558 16.2581 29.1195 15.9944C29.3832 15.7306 29.5314 15.373 29.5314 15C29.5314 14.627 29.3832 14.2694 29.1195 14.0056C28.8558 13.7419 28.4981 13.5938 28.1251 13.5938Z" fill="#66B2FF"/>
</g>
<defs>
<clipPath id="clip0_51_5">
<rect width="30" height="30" fill="white"/>
</clipPath>
</defs>
</svg>
