<svg width="200" height="33" viewBox="0 0 201 33" fill="none" xmlns="http://www.w3.org/2000/svg">
<path d="M28.3742 18.1818V4.31817L21.0212 0.136353H13.7137L24.7431 6.40908V12.7273V20.2727L28.3742 18.1818Z" fill="url(#paint0_linear_28_209)"/>
<path d="M9.31104 26.0455L21.0213 32.8636H20.9759L21.1574 33L28.6919 28.6364L32.323 22.3182L21.2482 28.7727L9.31104 21.8636V26.0455Z" fill="url(#paint1_linear_28_209)"/>
<path d="M23.9262 21.9546H23.9716L17.4356 25.6818L21.0213 27.7728L32.9131 20.8182V12.0455L29.282 5.72729V18.6818L23.9262 21.9546Z" fill="url(#paint2_linear_28_209)"/>
<path d="M23.8354 6.90909L11.9436 0L4.40913 4.36364L0.778046 10.7273L12.0344 4.22727L17.481 7.40909H17.3902L23.8354 11.1364V6.90909Z" fill="url(#paint3_linear_28_209)"/>
<path d="M12.1251 5.27271L0.233337 12.2273V20.9545L3.86442 27.2727V14.3182L9.22027 11.1363L15.7562 7.36361L12.1251 5.27271Z" fill="url(#paint4_linear_28_209)"/>
<path d="M4.77219 14.8182V28.6818L12.1251 32.8637H19.4781L8.40327 26.5909V20.2727V12.7273L4.77219 14.8182Z" fill="url(#paint5_linear_28_209)"/>
<path d="M47.9458 3.92725H45.985V28.8H47.9458V3.92725Z" fill="white"/>
<path d="M68.0903 14.3356H66.5475C66.1043 12.2645 64.3808 11.8864 63.2483 11.8864C61.1145 11.8864 59.3911 13.4644 59.3911 16.5711C59.3911 19.3491 60.3759 21.486 63.2975 21.486C64.3316 21.486 66.1207 20.9928 66.6624 18.2478H68.2052C67.5487 22.7024 63.9377 22.8996 63.0513 22.8996C60.3759 22.8996 57.7497 21.1572 57.7497 16.6204C57.7497 12.9877 59.8178 10.4728 63.2483 10.4728C66.2848 10.4728 67.8606 12.3631 68.0903 14.3356ZM76.7076 19.1518H71.9804L70.7494 22.5873H69.108L73.5397 10.7851H75.3452L79.6128 22.5873H77.8729L76.7076 19.1518ZM72.4728 17.7382H76.1331L74.3932 12.5439H74.3604L72.4728 17.7382ZM88.8865 20.3189V10.7851H90.4294V22.5873H88.6403L82.6493 13.0535H82.6165V22.5873H81.0736V10.7851H82.9612L88.8537 20.3189H88.8865ZM97.1755 20.8449L100.507 10.7851H102.297L97.9962 22.5873H96.3056L92.0052 10.7851H93.7778L97.1427 20.8449H97.1755ZM110.454 19.1518H105.727L104.496 22.5873H102.855L107.286 10.7851H109.092L113.359 22.5873H111.62L110.454 19.1518ZM106.219 17.7382H109.88L108.14 12.5439H108.107L106.219 17.7382ZM123.421 14.237H121.927C121.845 12.4124 120.335 11.8371 119.006 11.8371C118.005 11.8371 116.314 12.1165 116.314 13.9082C116.314 14.9109 117.02 15.2397 117.709 15.4041L121.074 16.1766C122.6 16.5383 123.749 17.4588 123.749 19.3326C123.749 22.127 121.156 22.8996 119.137 22.8996C116.954 22.8996 116.101 22.2421 115.575 21.7654C114.574 20.8613 114.377 19.8751 114.377 18.7738H115.871C115.871 20.9107 117.611 21.5353 119.121 21.5353C120.27 21.5353 122.206 21.2394 122.206 19.5463C122.206 18.3135 121.632 17.919 119.695 17.4588L117.282 16.8999C116.511 16.7191 114.771 16.1766 114.771 14.1219C114.771 12.2809 115.969 10.4728 118.825 10.4728C122.945 10.4728 123.355 12.9384 123.421 14.237ZM132.252 12.8069L129.527 22.5873H127.853L124.783 10.7851H126.507L128.706 20.3847H128.739L131.382 10.7851H133.122L135.764 20.3847H135.797L137.996 10.7851H139.753L136.651 22.5873H134.976L132.284 12.8069H132.252ZM143.101 10.7851V22.5873H141.509V10.7851H143.101ZM154.23 21.1737V22.5873H144.956V21.2558L152.178 12.1987H145.498V10.7851H154.23V12.1659L146.975 21.1737H154.23ZM162.436 19.1518H157.709L156.478 22.5873H154.837L159.269 10.7851H161.074L165.342 22.5873H163.602L162.436 19.1518ZM158.202 17.7382H161.862L160.122 12.5439H160.089L158.202 17.7382ZM168.592 17.5245V22.5873H166.999V10.7851H172.449C174.386 10.7851 176.322 11.459 176.322 13.9576C176.322 15.6999 175.436 16.341 174.681 16.7848C175.354 17.0643 176.027 17.3601 176.093 19.0039L176.191 21.1408C176.208 21.7983 176.29 22.0449 176.782 22.3243V22.5873H174.829C174.599 21.864 174.55 20.0723 174.55 19.6285C174.55 18.6587 174.353 17.5245 172.449 17.5245H168.592ZM168.592 12.1494V16.1602H172.285C173.45 16.1602 174.681 15.8643 174.681 14.1219C174.681 12.2974 173.352 12.1494 172.564 12.1494H168.592ZM178.735 22.5873V10.7851H183.512C186.581 10.7851 188.469 13.1192 188.469 16.5218C188.469 19.1683 187.32 22.5873 183.446 22.5873H178.735ZM180.327 12.1494V21.223H183.413C185.481 21.223 186.827 19.5956 186.827 16.6204C186.827 13.6452 185.465 12.1494 183.298 12.1494H180.327Z" fill="white"/>
<defs>
<linearGradient id="paint0_linear_28_209" x1="13.7137" y1="0.136353" x2="28.3742" y2="0.136353" gradientUnits="userSpaceOnUse">
<stop stop-color="#00FF8F"/>
<stop offset="1" stop-color="#00A1FF"/>
</linearGradient>
<linearGradient id="paint1_linear_28_209" x1="9.31104" y1="21.8636" x2="32.323" y2="21.8636" gradientUnits="userSpaceOnUse">
<stop stop-color="#00FF8F"/>
<stop offset="1" stop-color="#00A1FF"/>
</linearGradient>
<linearGradient id="paint2_linear_28_209" x1="17.4356" y1="5.72729" x2="32.9131" y2="5.72729" gradientUnits="userSpaceOnUse">
<stop stop-color="#00FF8F"/>
<stop offset="1" stop-color="#00A1FF"/>
</linearGradient>
<linearGradient id="paint3_linear_28_209" x1="0.778046" y1="0" x2="23.8354" y2="0" gradientUnits="userSpaceOnUse">
<stop stop-color="#00FF8F"/>
<stop offset="1" stop-color="#00A1FF"/>
</linearGradient>
<linearGradient id="paint4_linear_28_209" x1="0.233337" y1="5.27271" x2="15.7562" y2="5.27271" gradientUnits="userSpaceOnUse">
<stop stop-color="#00FF8F"/>
<stop offset="1" stop-color="#00A1FF"/>
</linearGradient>
<linearGradient id="paint5_linear_28_209" x1="4.77219" y1="12.7273" x2="19.4781" y2="12.7273" gradientUnits="userSpaceOnUse">
<stop stop-color="#00FF8F"/>
<stop offset="1" stop-color="#00A1FF"/>
</linearGradient>
</defs>
</svg>
