<svg width="30" height="30" viewBox="0 0 30 30" fill="none" xmlns="http://www.w3.org/2000/svg">
<path d="M9.98624 4.37436C9.8227 4.5418 9.73114 4.76656 9.73114 5.00061C9.73114 5.23466 9.8227 5.45943 9.98624 5.62686L19.1231 15L9.98624 24.3712C9.8227 24.5387 9.73114 24.7634 9.73114 24.9975C9.73114 25.2315 9.8227 25.4563 9.98624 25.6237C10.0657 25.7054 10.1608 25.7703 10.2658 25.8146C10.3707 25.8589 10.4835 25.8817 10.5975 25.8817C10.7114 25.8817 10.8242 25.8589 10.9292 25.8146C11.0342 25.7703 11.1292 25.7054 11.2087 25.6237L20.925 15.6544C21.0956 15.4793 21.1911 15.2445 21.1911 15C21.1911 14.7555 21.0956 14.5207 20.925 14.3456L11.2087 4.37624C11.1292 4.29459 11.0342 4.2297 10.9292 4.18539C10.8242 4.14108 10.7114 4.11826 10.5975 4.11826C10.4835 4.11826 10.3707 4.14108 10.2658 4.18539C10.1608 4.2297 10.0657 4.29459 9.98624 4.37624V4.37436Z" fill="#66B2FF"/>
</svg>
