<svg width="30" height="30" viewBox="0 0 30 30" fill="none" xmlns="http://www.w3.org/2000/svg">
<path d="M16.285 2.50129C17.1972 2.49779 18.1093 2.50696 19.0213 2.52879L19.2638 2.53754C19.5438 2.54754 19.82 2.56004 20.1538 2.57504C21.4838 2.63754 22.3913 2.84754 23.1875 3.15629C24.0125 3.47379 24.7075 3.90379 25.4025 4.59879C26.038 5.2233 26.5298 5.97873 26.8438 6.81254C27.1525 7.60879 27.3625 8.51754 27.425 9.84754C27.44 10.18 27.4525 10.4575 27.4625 10.7375L27.47 10.98C27.4922 11.8915 27.5018 12.8033 27.4988 13.715L27.5 14.6475V16.285C27.5031 17.1972 27.4935 18.1094 27.4713 19.0213L27.4638 19.2638C27.4538 19.5438 27.4413 19.82 27.4263 20.1538C27.3638 21.4838 27.1513 22.3913 26.8438 23.1875C26.5308 24.0222 26.0389 24.7783 25.4025 25.4025C24.7775 26.0379 24.0216 26.5297 23.1875 26.8438C22.3913 27.1525 21.4838 27.3625 20.1538 27.425C19.82 27.44 19.5438 27.4525 19.2638 27.4625L19.0213 27.47C18.1093 27.4923 17.1972 27.5019 16.285 27.4988L15.3525 27.5H13.7163C12.8041 27.5031 11.8919 27.4935 10.98 27.4713L10.7375 27.4638C10.4408 27.453 10.1441 27.4405 9.8475 27.4263C8.5175 27.3638 7.61 27.1513 6.8125 26.8438C5.97836 26.5305 5.2228 26.0386 4.59875 25.4025C3.96256 24.7779 3.47028 24.022 3.15625 23.1875C2.8475 22.3913 2.6375 21.4838 2.575 20.1538C2.56108 19.8572 2.54858 19.5605 2.5375 19.2638L2.53125 19.0213C2.50821 18.1094 2.49779 17.1972 2.5 16.285V13.715C2.49652 12.8033 2.50568 11.8915 2.5275 10.98L2.53625 10.7375C2.54625 10.4575 2.55875 10.18 2.57375 9.84754C2.63625 8.51629 2.84625 7.61004 3.155 6.81254C3.46922 5.97832 3.96246 5.2231 4.6 4.60004C5.22362 3.96348 5.97871 3.47076 6.8125 3.15629C7.61 2.84754 8.51625 2.63754 9.8475 2.57504L10.7375 2.53754L10.98 2.53129C11.8915 2.50826 12.8032 2.49784 13.715 2.50004L16.285 2.50129ZM15 8.75129C14.1719 8.73958 13.3497 8.89257 12.5812 9.20138C11.8127 9.51018 11.1133 9.96864 10.5236 10.5501C9.93381 11.1316 9.4655 11.8245 9.14586 12.5885C8.82622 13.3525 8.66162 14.1725 8.66162 15.0007C8.66162 15.8289 8.82622 16.6488 9.14586 17.4128C9.4655 18.1769 9.93381 18.8698 10.5236 19.4512C11.1133 20.0327 11.8127 20.4912 12.5812 20.8C13.3497 21.1088 14.1719 21.2618 15 21.25C16.6576 21.25 18.2473 20.5916 19.4194 19.4195C20.5915 18.2474 21.25 16.6576 21.25 15C21.25 13.3424 20.5915 11.7527 19.4194 10.5806C18.2473 9.40852 16.6576 8.75129 15 8.75129ZM15 11.2513C15.4981 11.2421 15.9931 11.3323 16.456 11.5166C16.9189 11.7008 17.3404 11.9755 17.696 12.3245C18.0515 12.6735 18.334 13.0898 18.5268 13.5492C18.7196 14.0086 18.819 14.5018 18.8191 15C18.8192 15.4983 18.72 15.9915 18.5273 16.4509C18.3346 16.9104 18.0523 17.3268 17.6969 17.676C17.3414 18.0251 16.92 18.2999 16.4572 18.4843C15.9943 18.6687 15.4994 18.7591 15.0013 18.75C14.0067 18.75 13.0529 18.355 12.3496 17.6517C11.6463 16.9484 11.2513 15.9946 11.2513 15C11.2513 14.0055 11.6463 13.0517 12.3496 12.3484C13.0529 11.6451 14.0067 11.25 15.0013 11.25L15 11.2513ZM21.5625 6.87629C21.1592 6.89243 20.7779 7.06398 20.4983 7.35501C20.2186 7.64603 20.0625 8.03396 20.0625 8.43754C20.0625 8.84113 20.2186 9.22905 20.4983 9.52008C20.7779 9.81111 21.1592 9.98265 21.5625 9.99879C21.9769 9.99879 22.3743 9.83417 22.6674 9.54115C22.9604 9.24812 23.125 8.85069 23.125 8.43629C23.125 8.02189 22.9604 7.62447 22.6674 7.33144C22.3743 7.03841 21.9769 6.87379 21.5625 6.87379V6.87629Z" fill="#66B2FF"/>
</svg>
