<svg width="31" height="30" viewBox="0 0 31 30" fill="none" xmlns="http://www.w3.org/2000/svg">
<path d="M24.3027 3.75C24.9657 3.75 25.6016 4.01339 26.0705 4.48223C26.5393 4.95107 26.8027 5.58696 26.8027 6.25V23.75C26.8027 24.413 26.5393 25.0489 26.0705 25.5178C25.6016 25.9866 24.9657 26.25 24.3027 26.25H6.8027C6.13966 26.25 5.50378 25.9866 5.03494 25.5178C4.5661 25.0489 4.3027 24.413 4.3027 23.75V6.25C4.3027 5.58696 4.5661 4.95107 5.03494 4.48223C5.50378 4.01339 6.13966 3.75 6.8027 3.75H24.3027ZM23.6777 23.125V16.5C23.6777 15.4192 23.2484 14.3828 22.4842 13.6185C21.72 12.8543 20.6835 12.425 19.6027 12.425C18.5402 12.425 17.3027 13.075 16.7027 14.05V12.6625H13.2152V23.125H16.7027V16.9625C16.7027 16 17.4777 15.2125 18.4402 15.2125C18.9043 15.2125 19.3495 15.3969 19.6776 15.7251C20.0058 16.0533 20.1902 16.4984 20.1902 16.9625V23.125H23.6777ZM9.1527 10.7C9.70966 10.7 10.2438 10.4788 10.6376 10.0849C11.0315 9.6911 11.2527 9.15695 11.2527 8.6C11.2527 7.4375 10.3152 6.4875 9.1527 6.4875C8.59243 6.4875 8.05511 6.71007 7.65894 7.10624C7.26277 7.50241 7.0402 8.03973 7.0402 8.6C7.0402 9.7625 7.9902 10.7 9.1527 10.7ZM10.8902 23.125V12.6625H7.4277V23.125H10.8902Z" fill="#66B2FF"/>
</svg>
