<svg width="30" height="30" viewBox="0 0 30 30" fill="none" xmlns="http://www.w3.org/2000/svg">
<g clip-path="url(#clip0_86_57)">
<path d="M15.414 0.00599083C15.2156 0.000336463 15.0201 0.0538351 14.8522 0.159677C14.6843 0.26552 14.5517 0.418918 14.4713 0.600349C14.3909 0.781779 14.3663 0.983036 14.4006 1.1785C14.4349 1.37397 14.5266 1.5548 14.664 1.69799C16.4395 3.5491 17.5752 5.92041 17.9044 8.46415C18.2337 11.0079 17.7392 13.5902 16.4935 15.8324C15.2479 18.0745 13.3165 19.8586 10.9828 20.9228C8.64905 21.9871 6.0357 22.2756 3.52601 21.746C3.33212 21.7057 3.13063 21.7239 2.94709 21.7982C2.76355 21.8726 2.60622 21.9998 2.49504 22.1637C2.38386 22.3275 2.32384 22.5207 2.32259 22.7188C2.32134 22.9168 2.37891 23.1107 2.48801 23.276C3.90966 25.4251 5.86098 27.1718 8.15385 28.3476C10.4467 29.5234 13.0038 30.0887 15.5787 29.989C18.1535 29.8893 20.6593 29.128 22.8544 27.7785C25.0495 26.429 26.86 24.5367 28.1113 22.2841C29.3625 20.0315 30.0124 17.4946 29.9983 14.9178C29.9841 12.3411 29.3064 9.81146 28.0305 7.57275C26.7545 5.33405 24.9234 3.46178 22.7136 2.13644C20.5038 0.8111 17.9898 0.0773729 15.414 0.00599083Z" fill="#66B2FF"/>
</g>
<defs>
<clipPath id="clip0_86_57">
<rect width="30" height="30" fill="white"/>
</clipPath>
</defs>
</svg>
