<svg width="30" height="30" viewBox="0 0 30 30" fill="none" xmlns="http://www.w3.org/2000/svg">
<path d="M25.7812 3.28125H4.21875C3.7002 3.28125 3.28125 3.7002 3.28125 4.21875V25.7812C3.28125 26.2998 3.7002 26.7188 4.21875 26.7188H25.7812C26.2998 26.7188 26.7188 26.2998 26.7188 25.7812V4.21875C26.7188 3.7002 26.2998 3.28125 25.7812 3.28125ZM10.7812 21.7969C10.7812 21.9258 10.6758 22.0312 10.5469 22.0312H8.20312C8.07422 22.0312 7.96875 21.9258 7.96875 21.7969V8.20312C7.96875 8.07422 8.07422 7.96875 8.20312 7.96875H10.5469C10.6758 7.96875 10.7812 8.07422 10.7812 8.20312V21.7969ZM16.4062 13.5938C16.4062 13.7227 16.3008 13.8281 16.1719 13.8281H13.8281C13.6992 13.8281 13.5938 13.7227 13.5938 13.5938V8.20312C13.5938 8.07422 13.6992 7.96875 13.8281 7.96875H16.1719C16.3008 7.96875 16.4062 8.07422 16.4062 8.20312V13.5938ZM22.0312 15.7031C22.0312 15.832 21.9258 15.9375 21.7969 15.9375H19.4531C19.3242 15.9375 19.2188 15.832 19.2188 15.7031V8.20312C19.2188 8.07422 19.3242 7.96875 19.4531 7.96875H21.7969C21.9258 7.96875 22.0312 8.07422 22.0312 8.20312V15.7031Z" fill="#66B2FF"/>
</svg>
