<svg width="30" height="30" viewBox="0 0 30 30" fill="none" xmlns="http://www.w3.org/2000/svg">
<path fill-rule="evenodd" clip-rule="evenodd" d="M12.0687 4.25001C13.0888 4.58125 14.0713 5.01864 15 5.55501C15.9287 5.01864 16.9112 4.58125 17.9313 4.25001C20.4862 3.44251 23.0312 3.58626 24.7225 5.27751C26.4137 6.96876 26.5575 9.51501 25.75 12.0688C25.4187 13.0888 24.9813 14.0713 24.445 15C25.015 16.0038 25.4513 16.9875 25.75 17.9313C26.5575 20.485 26.4137 23.0313 24.7225 24.7225C23.0325 26.4138 20.485 26.5575 17.9313 25.75C16.9112 25.4188 15.9287 24.9814 15 24.445C14.0713 24.9814 13.0888 25.4188 12.0687 25.75C9.515 26.5563 6.96875 26.4138 5.2775 24.7225C3.58625 23.0313 3.44375 20.485 4.25 17.9313C4.54875 16.9863 4.985 16.0038 5.555 15C5.01863 14.0713 4.58123 13.0888 4.25 12.0688C3.44375 9.51376 3.5875 6.96876 5.2775 5.27751C6.96875 3.58626 9.515 3.44251 12.0687 4.25001ZM22.8625 17.3863C22.125 18.3588 21.27 19.3363 20.3037 20.3038C19.3906 21.2216 18.4158 22.0761 17.3863 22.8613C17.835 23.0663 18.2688 23.235 18.685 23.3663C20.8075 24.0363 22.205 23.7038 22.955 22.9538C23.705 22.205 24.0375 20.8063 23.3675 18.685C23.2259 18.2418 23.0573 17.8076 22.8625 17.385V17.3863ZM7.1375 17.3863C6.94326 17.8085 6.77503 18.2422 6.63375 18.685C5.96375 20.8075 6.29625 22.205 7.04625 22.955C7.795 23.705 9.19375 24.0363 11.315 23.3663C11.7325 23.235 12.165 23.0663 12.615 22.8613C11.5855 22.0761 10.6107 21.2216 9.6975 20.3038C8.77921 19.3906 7.92306 18.4158 7.1375 17.3863ZM15 8.50001C13.7317 9.37583 12.5482 10.3685 11.465 11.465C10.3685 12.5482 9.37582 13.7317 8.5 15C9.37505 16.2682 10.3669 17.4517 11.4625 18.535C12.6663 19.7388 13.8575 20.7225 15 21.5C16.2683 20.6242 17.4518 19.6315 18.535 18.535C19.6311 17.4518 20.6233 16.2683 21.4987 15C20.6238 13.7314 19.632 12.5474 18.5363 11.4638C17.4525 10.3681 16.2686 9.375 15 8.50001ZM15 13.125C15.4973 13.125 15.9742 13.3226 16.3258 13.6742C16.6775 14.0258 16.875 14.5027 16.875 15C16.875 15.4973 16.6775 15.9742 16.3258 16.3258C15.9742 16.6775 15.4973 16.875 15 16.875C14.5027 16.875 14.0258 16.6775 13.6742 16.3258C13.3225 15.9742 13.125 15.4973 13.125 15C13.125 14.5027 13.3225 14.0258 13.6742 13.6742C14.0258 13.3226 14.5027 13.125 15 13.125ZM7.045 7.04501C6.295 7.79501 5.96375 9.19251 6.63375 11.315C6.765 11.7313 6.93375 12.165 7.13875 12.615C7.87625 11.64 8.73 10.6638 9.6975 9.69626C10.6103 8.77845 11.5846 7.92396 12.6137 7.13876C12.1915 6.94408 11.7578 6.77544 11.315 6.63376C9.19375 5.96376 7.795 6.29626 7.045 7.04501ZM18.685 6.63376C18.2688 6.76501 17.835 6.93376 17.3863 7.13876C18.3588 7.87626 19.3363 8.73001 20.3037 9.69626C21.222 10.6094 22.077 11.5842 22.8625 12.6138C23.0675 12.165 23.235 11.7313 23.3663 11.315C24.0375 9.19251 23.705 7.79501 22.955 7.04501C22.205 6.29501 20.8075 5.96376 18.685 6.63376Z" fill="#66B2FF"/>
</svg>
